<svg xmlns="http://www.w3.org/2000/svg" width="33.545" height="33.545" viewBox="0 0 33.545 33.545">
  <defs>
    <style>
      .cls-1 {
        fill: #0089ff;
      }
    </style>
  </defs>
  <path id="路径_395" data-name="路径 395" class="cls-1" d="M16.772,0A16.772,16.772,0,1,0,33.545,16.772,16.772,16.772,0,0,0,16.772,0ZM13.25,10.884a3.528,3.528,0,1,1,7.051,0V15.97a3.528,3.528,0,1,1-7.051,0V10.884Zm9.392,5.362a6.032,6.032,0,0,1-5.165,5.784v3.346h1.881c.419,0,.94.055.94.478s-.521.478-.94.478H14.187c-.42,0-.94-.055-.94-.478s.52-.478.94-.478h1.881V22.03A5.833,5.833,0,0,1,10.9,16.246v-1a.742.742,0,0,1,1.483,0v1a4.388,4.388,0,0,0,8.775,0v-1a.742.742,0,0,1,1.483,0v1Z"/>
</svg>
