<svg xmlns="http://www.w3.org/2000/svg" xmlns:xlink="http://www.w3.org/1999/xlink" width="24" height="24.014" viewBox="0 0 24 24.014">
  <defs>
    <style>
      .cls-1 {
        fill: url(#linear-gradient);
      }
    </style>
    <linearGradient id="linear-gradient" x1="0.5" x2="0.5" y2="1" gradientUnits="objectBoundingBox">
      <stop offset="0" stop-color="#f9da12"/>
      <stop offset="1" stop-color="#ffb300"/>
    </linearGradient>
  </defs>
  <path id="路径_494" data-name="路径 494" class="cls-1" d="M26.261,12.907c-1.7,2.073-4.712,5.5-4.712,5.5s.492,3.758.768,6.325c.12,1.308-.823,1.873-1.89,1.363-2.031-1.021-5.123-2.6-5.818-2.958-.708.353-3.83,1.908-5.882,2.926A1.253,1.253,0,0,1,6.814,24.7c.28-2.563.777-6.318.777-6.318s-3.044-3.416-4.766-5.486c-.609-.752-.218-1.821.982-2.018,2.447-.463,6.24-1.2,6.24-1.2s2.075-3.824,3.387-6.166c.722-1.425,1.222-1.261,1.308-1.219.223.077.574.354,1.033,1.22,1.3,2.345,3.349,6.174,3.349,6.174s3.748.737,6.167,1.2a1.249,1.249,0,0,1,.971,2.02Z" transform="translate(-2.541 -2.264)"/>
</svg>
